<?xml version="1.0" standalone="no"?>
<!DOCTYPE svg PUBLIC "-//W3C//DTD SVG 20010904//EN"
 "http://www.w3.org/TR/2001/REC-SVG-20010904/DTD/svg10.dtd">
<svg version="1.0" xmlns="http://www.w3.org/2000/svg"
 width="420.000000pt" height="594.000000pt" viewBox="0 0 420.000000 594.000000"
 preserveAspectRatio="xMidYMid meet">
<metadata>
Created by potrace 1.16, written by Peter Selinger 2001-2019
</metadata>
<g transform="translate(0.000000,594.000000) scale(0.100000,-0.100000)"
fill="#000000" stroke="none">
<path d="M108 5720 c-13 -3 -24 -11 -24 -18 -1 -7 -2 -15 -3 -19 -3 -17 1
-3872 4 -3924 1 -31 5 -65 9 -75 3 -11 8 -39 11 -64 3 -25 9 -56 14 -70 5 -14
17 -58 27 -98 10 -39 21 -72 26 -72 4 0 8 -9 8 -21 0 -33 98 -229 153 -304
131 -180 232 -266 411 -351 160 -76 219 -86 536 -89 310 -3 379 -13 495 -69
93 -44 198 -135 243 -208 9 -16 20 -28 24 -28 4 0 8 -5 8 -11 0 -6 9 -24 21
-40 34 -48 59 -39 122 44 152 202 333 285 662 302 50 3 135 7 190 10 144 8
189 14 295 42 139 36 294 113 351 175 9 10 21 18 26 18 6 0 43 35 84 78 80 85
112 122 104 122 -3 0 3 9 13 20 35 42 132 227 132 254 0 8 5 18 10 21 5 3 10
17 10 30 0 13 5 25 10 27 6 2 11 18 13 36 1 17 6 32 11 32 4 0 6 6 3 14 -3 7
1 33 9 57 9 24 17 72 19 107 2 35 6 67 9 70 3 3 6 902 6 1998 0 1583 -3 1994
-12 2001 -14 9 -3992 11 -4030 3z m2642 -792 l0 -608 -655 0 -655 0 0 604 0
605 38 3 c20 2 315 3 655 4 l617 1 0 -609z m507 302 c49 -29 66 -72 71 -175 3
-80 1 -95 -20 -134 -36 -67 -64 -83 -152 -89 l-75 -5 -3 -121 -3 -121 -72 0
-73 0 0 333 0 332 148 0 c128 0 151 -3 179 -20z m393 14 c0 -7 75 -297 129
-498 22 -83 38 -152 36 -155 -2 -3 -36 -6 -76 -5 l-73 1 -11 49 -10 49 -82 3
-82 3 -7 -28 c-17 -77 -14 -75 -82 -75 -92 1 -94 1 -88 11 3 5 26 89 51 188
26 98 59 221 75 273 15 52 34 116 40 143 l13 47 83 0 c46 0 84 -3 84 -6z
m-2999 -57 c43 -29 70 -82 76 -156 10 -104 -23 -187 -88 -222 -13 -7 -55 -15
-94 -18 l-70 -6 -3 -122 -3 -123 -69 0 -70 0 0 335 0 335 144 0 c132 0 146 -2
177 -23z m358 -29 c5 -29 22 -118 37 -198 32 -167 30 -169 69 65 14 83 28 158
31 168 5 15 19 17 100 17 l94 0 0 -335 0 -336 -57 3 -58 3 -5 240 c-3 132 -7
236 -8 230 -5 -23 -82 -460 -82 -467 0 -4 -25 -8 -55 -8 -30 0 -55 3 -55 6 0
3 -9 49 -19 102 -11 54 -31 160 -45 236 -15 77 -28 141 -30 144 -3 2 -4 -38
-3 -90 0 -51 0 -162 -1 -245 l-2 -153 -55 0 -55 0 0 335 0 335 94 0 95 0 10
-52z m2981 -2155 c0 -1259 0 -1258 -50 -1448 -57 -213 -179 -414 -328 -538
-100 -84 -156 -118 -250 -156 -129 -51 -190 -61 -436 -71 -126 -5 -269 -16
-318 -25 -170 -29 -315 -101 -421 -209 -30 -31 -59 -56 -64 -56 -5 0 -25 17
-44 38 -62 68 -133 120 -211 156 -151 69 -231 82 -553 96 -255 10 -337 26
-481 95 -87 42 -215 136 -280 206 -137 148 -249 403 -284 648 -7 48 -17 2373
-11 2434 1 4 840 7 1866 7 l1865 0 0 -1177z"/>
<path d="M477 5063 c-10 -9 -8 -116 2 -132 13 -20 77 -6 96 22 19 28 19 67 -1
95 -11 16 -25 22 -53 22 -21 0 -41 -3 -44 -7z"/>
<path d="M2081 4039 c0 -9 -14 -36 -31 -60 -35 -52 -37 -72 -10 -122 27 -50
25 -59 -7 -41 -39 20 -57 18 -92 -12 -24 -19 -31 -34 -31 -60 0 -40 29 -74 63
-74 25 0 57 28 57 48 0 17 15 15 30 -3 7 -9 9 -22 5 -32 -5 -10 -7 -22 -6 -26
1 -4 -4 -7 -11 -5 -7 1 -24 -4 -37 -11 -13 -7 -34 -11 -47 -8 -13 2 -24 0 -24
-4 0 -5 13 -9 29 -9 16 0 31 -6 35 -15 4 -13 -7 -15 -72 -15 -53 0 -72 -3 -62
-10 9 -6 10 -10 3 -10 -21 0 -26 -40 -8 -60 15 -17 33 -18 208 -17 l192 1
-171 3 -171 3 5 25 c2 14 -1 32 -8 40 -11 13 -2 15 67 15 75 0 80 -1 91 -25 6
-14 16 -25 21 -25 5 0 16 11 25 25 14 21 25 25 74 26 31 1 45 4 30 6 -38 6
-37 33 1 33 20 0 40 11 65 36 20 20 36 40 36 45 0 5 -14 -6 -31 -26 -17 -19
-36 -35 -42 -35 -6 0 -1 10 11 23 11 12 21 24 21 27 -1 3 2 17 6 31 14 57 -51
120 -110 105 -28 -7 -32 2 -10 30 24 32 17 70 -22 129 -21 31 -39 51 -41 45
-6 -16 -20 -12 -25 8 -4 14 -5 14 -6 1z"/>
<path d="M2605 3898 c2 -26 6 -51 8 -55 3 -5 -1 -16 -8 -26 -11 -15 -13 -11
-13 29 -2 61 -12 71 -12 11 0 -25 -4 -48 -9 -51 -5 -4 -25 4 -45 16 -35 23
-45 38 -26 38 6 0 8 11 4 26 -4 17 -2 29 7 36 11 7 9 8 -6 6 -14 -3 -19 -10
-17 -26 2 -13 -2 -30 -9 -38 -8 -10 -9 -18 -3 -22 6 -4 23 -17 39 -29 23 -19
25 -25 15 -38 -17 -21 12 -55 41 -48 14 4 19 0 19 -13 0 -16 -2 -17 -10 -4 -8
13 -10 12 -10 -3 0 -11 -4 -15 -12 -11 -6 4 -8 3 -5 -4 4 -5 4 -18 1 -27 -6
-14 -8 -14 -23 -1 -14 13 -23 14 -49 4 -58 -22 -54 15 6 51 27 16 30 20 12 15
-56 -15 -68 -23 -73 -51 -6 -34 -5 -35 27 -35 16 0 23 -5 19 -12 -4 -6 0 -6 9
2 13 10 16 9 21 -7 4 -16 -1 -21 -22 -24 -23 -4 -23 -4 6 -6 31 -1 32 0 27 37
l-5 37 15 -32 c13 -30 29 -45 24 -25 -3 15 21 60 36 65 9 4 16 13 16 21 0 12
20 26 37 26 3 0 3 -11 1 -25 -3 -15 -1 -22 5 -18 6 4 8 -3 3 -18 -16 -59 -18
-79 -7 -79 7 0 9 -4 6 -10 -3 -5 -1 -19 5 -31 15 -27 5 -36 -18 -16 -10 10
-25 17 -33 16 -8 0 -3 -5 10 -10 18 -7 22 -14 16 -32 -3 -12 -9 -43 -12 -69
-5 -46 -7 -49 -46 -60 -22 -7 -35 -14 -29 -16 18 -6 82 27 82 42 0 9 9 25 20
36 11 11 21 35 21 53 1 17 2 44 3 58 1 29 58 99 80 99 24 0 47 29 40 54 -5 20
4 73 21 121 4 13 1 12 -9 -5 -8 -14 -16 -34 -16 -45 l-1 -20 -10 20 c-7 16 -8
14 -3 -10 4 -24 3 -28 -7 -17 -19 17 -20 82 -2 82 8 0 23 9 35 20 23 21 44 27
33 10 -3 -5 -2 -10 4 -10 16 0 23 18 10 26 -6 4 -33 -4 -60 -17 -37 -18 -49
-29 -49 -47 0 -15 -7 -26 -20 -29 -24 -6 -26 -32 -5 -59 15 -18 16 -17 10 14
-8 40 8 42 25 2 14 -34 8 -60 -15 -60 -9 0 -14 -4 -11 -9 3 -5 -4 -11 -17 -15
-38 -10 -43 -6 -17 14 23 18 23 20 5 20 -21 0 -49 46 -38 63 3 6 1 7 -4 4 -7
-4 -13 22 -18 71 -4 42 -11 86 -15 97 -6 14 -8 5 -5 -27z"/>
<path d="M1354 3869 c-4 -8 0 -9 15 -4 14 4 28 -1 44 -17 13 -13 29 -22 34
-21 17 6 21 -56 6 -75 -13 -15 -14 -13 -8 18 5 32 4 33 -9 15 -7 -11 -14 -40
-14 -65 -1 -31 2 -40 8 -30 6 8 10 10 10 4 0 -5 25 -35 55 -66 48 -49 55 -61
50 -85 -5 -24 -4 -25 4 -7 5 12 15 25 21 29 11 7 4 66 -12 98 -6 12 -5 17 4
17 10 0 10 2 0 9 -7 4 -25 6 -39 3 l-26 -5 24 -18 c20 -16 21 -19 6 -19 -16 0
-16 -2 3 -22 11 -12 17 -24 14 -27 -9 -9 -42 42 -37 56 4 9 0 11 -13 6 -11 -4
-15 -3 -11 4 4 6 0 14 -9 17 -9 3 -14 13 -11 21 4 10 1 12 -10 8 -12 -5 -10 2
7 25 30 40 33 40 25 0 l-7 -31 29 24 c19 15 25 25 16 27 -7 2 -13 8 -13 13 0
5 -7 9 -15 9 -10 0 -15 10 -15 30 0 23 -4 30 -20 30 -11 0 -20 4 -20 8 0 10
-45 32 -65 32 -8 0 -17 -5 -21 -11z"/>
<path d="M1990 3190 l-115 -109 73 0 73 -1 -3 -32 c-3 -30 -6 -33 -58 -44
-125 -26 -232 -87 -327 -188 -91 -95 -163 -240 -163 -328 0 -23 -4 -28 -25
-28 -23 0 -25 3 -25 53 0 54 -10 82 -28 76 -12 -5 -202 -225 -202 -235 0 -4
37 -45 82 -90 97 -99 100 -104 83 -127 -12 -17 -16 -16 -48 19 -44 48 -62 40
-52 -25 8 -52 18 -75 49 -107 25 -26 76 -41 76 -22 1 7 9 -3 19 -22 10 -19 16
-40 14 -47 -4 -9 0 -11 13 -6 11 4 15 3 11 -4 -7 -11 5 -18 53 -33 26 -7 26
-7 28 56 2 41 -3 76 -14 101 l-16 38 -23 -47 c-21 -46 -23 -47 -41 -30 -16 15
-19 34 -22 140 l-3 122 41 0 c24 0 42 -5 44 -12 3 -7 14 -44 25 -82 12 -38 37
-98 56 -133 l35 -64 -30 -37 c-28 -34 -40 -88 -23 -105 8 -9 53 52 53 72 0 21
17 47 25 39 4 -3 -1 -20 -9 -37 -18 -34 -20 -78 -6 -115 14 -38 -11 -34 -59 9
-31 28 -40 32 -45 20 -3 -8 -17 -15 -31 -15 -14 0 -25 -6 -25 -13 0 -8 -11
-24 -24 -36 -13 -13 -26 -31 -29 -42 -6 -23 -1 -24 19 -4 9 8 24 15 34 15 20
0 72 -39 52 -40 -7 0 -10 -5 -7 -11 4 -6 13 -8 21 -5 7 3 16 1 20 -5 3 -5 15
-7 26 -3 14 4 18 2 14 -5 -8 -13 -3 -13 46 -2 27 6 40 5 48 -4 5 -6 8 -14 5
-17 -6 -5 101 -21 266 -39 144 -16 556 1 543 22 -3 6 13 7 38 5 24 -3 35 -3
26 0 -21 6 -24 23 -5 25 6 1 44 2 82 4 116 3 126 5 121 14 -3 5 -15 7 -26 4
-24 -6 -26 9 -5 27 18 15 155 23 155 9 0 -5 4 -9 10 -9 13 0 -9 51 -29 68 -9
7 -16 18 -16 25 0 7 -12 13 -27 15 -20 2 -28 9 -28 23 0 10 -5 19 -11 19 -6 0
-9 -7 -5 -15 4 -11 -2 -15 -22 -15 l-27 1 27 24 c17 15 26 30 22 40 -4 10 -2
14 7 10 8 -2 25 4 39 15 14 11 20 20 13 20 -6 0 -15 -4 -18 -10 -3 -5 -11 -10
-17 -10 -6 0 -4 8 5 18 8 9 16 20 16 25 1 4 1 10 2 15 0 4 4 -2 9 -13 7 -19 9
-18 19 8 7 19 18 27 34 27 24 0 56 28 77 68 14 28 18 107 6 119 -4 4 -25 -11
-45 -33 -37 -42 -37 -42 -48 -18 -10 21 -3 31 83 120 52 53 94 99 94 101 0 13
-205 243 -214 240 -7 -3 -10 -23 -8 -52 8 -125 -41 -129 -62 -5 -21 120 -125
281 -236 363 -61 44 -173 94 -242 108 -68 13 -68 13 -68 46 l0 33 65 0 c36 0
65 2 65 5 0 12 -209 215 -222 215 -7 0 -65 -49 -128 -110z m244 -335 c131 -34
235 -109 304 -218 112 -177 109 -405 -6 -540 -104 -122 -210 -182 -353 -200
-106 -13 -201 3 -301 53 -71 35 -175 131 -215 199 -88 150 -65 346 60 519 40
55 145 145 159 136 4 -3 8 -1 8 4 0 5 33 20 73 32 39 12 77 23 82 25 28 9 138
3 189 -10z m590 -604 c5 -1 5 -27 0 -63 -4 -35 -8 -88 -8 -118 -1 -43 -5 -59
-21 -72 -23 -19 -35 -15 -35 11 0 11 -8 29 -18 42 l-19 22 -11 -33 c-13 -37
-16 -129 -4 -146 4 -7 15 -13 24 -15 13 -3 1 -19 -48 -62 -36 -31 -69 -55 -73
-52 -5 2 -6 26 -4 52 3 31 -1 62 -11 86 -23 56 0 34 30 -28 15 -30 31 -52 35
-49 18 10 9 72 -15 107 l-25 36 20 25 c11 14 20 28 20 31 -1 3 10 29 24 59 13
29 32 79 42 109 17 56 30 67 73 61 8 -1 19 -3 24 -3z m-1141 -352 c43 -41 143
-104 192 -120 l50 -18 -37 0 c-41 -1 -45 -6 -23 -35 21 -28 19 -36 -10 -36
-19 0 -29 10 -46 43 -12 23 -38 57 -58 76 -35 33 -36 33 -39 11 -2 -14 3 -27
12 -32 9 -5 16 -15 16 -23 0 -7 3 -15 8 -17 9 -4 54 -90 49 -95 -2 -2 -23 17
-46 42 -23 25 -46 45 -51 45 -6 0 -10 26 -10 58 0 39 -6 67 -20 90 -23 37 -18
41 13 11z m839 -99 c-3 -50 -7 -70 -17 -70 -7 0 -28 -18 -45 -40 -17 -22 -39
-40 -47 -40 -15 0 -15 2 -1 18 9 9 29 43 45 75 16 31 33 54 36 50 4 -3 7 3 7
15 0 12 -4 22 -9 22 -14 0 -70 -62 -94 -105 -17 -29 -29 -39 -43 -37 -28 5
-29 9 -10 36 22 34 20 37 -11 32 -36 -7 -16 8 32 23 22 7 65 30 95 51 30 22
57 39 60 40 3 0 4 -31 2 -70z"/>
<path d="M1882 2688 l1 -73 6 62 6 63 46 -58 c60 -75 67 -87 46 -79 -21 8 -22
10 9 -57 19 -43 24 -66 20 -92 -4 -19 -11 -34 -16 -34 -14 0 -36 38 -56 98
-12 31 -24 50 -31 48 -6 -3 -14 5 -16 17 -3 15 -5 12 -6 -11 -1 -25 3 -32 15
-30 11 2 22 -12 35 -44 10 -27 15 -48 11 -48 -10 0 -55 31 -63 43 -4 5 -12 6
-18 2 -8 -4 0 -13 21 -24 18 -10 63 -34 101 -55 l67 -38 -2 44 c-1 37 -2 39
-5 10 -3 -20 -9 -32 -16 -29 -15 5 -13 70 2 75 6 2 11 12 11 23 0 10 2 19 5
19 7 0 95 -54 194 -119 59 -38 100 -59 111 -56 12 4 32 -12 69 -57 28 -35 51
-66 51 -70 0 -6 -149 31 -160 39 -2 2 2 8 9 13 10 6 -3 17 -48 40 -71 36 -69
41 -27 -72 15 -41 25 -55 32 -48 8 8 13 -15 18 -76 3 -48 4 -89 2 -91 -2 -2
-27 24 -55 58 -33 42 -47 66 -39 70 8 5 5 22 -10 59 -26 62 -27 72 -7 110 15
29 14 30 -14 45 -17 8 -33 15 -36 15 -3 0 -2 -32 1 -71 l7 -70 -49 29 c-27 16
-96 59 -154 96 -87 56 -105 64 -110 50 -5 -13 -20 0 -63 56 -31 40 -56 75 -54
76 3 3 113 -24 167 -41 16 -5 22 -4 15 3 -12 11 -194 57 -200 50 -3 -3 22 -38
55 -79 33 -41 60 -77 60 -81 0 -12 30 -10 30 2 0 6 10 5 25 -2 34 -15 32 -24
-12 -47 -21 -11 -34 -20 -30 -21 4 0 26 9 48 21 38 19 42 19 65 4 31 -20 27
-25 -35 -55 -52 -24 -65 -39 -33 -41 9 0 -21 -13 -68 -29 -99 -32 -81 -40 21
-9 58 17 69 24 64 39 -5 16 11 31 31 29 4 0 10 5 15 12 4 8 11 10 15 7 5 -6
-4 -40 -31 -113 -5 -13 -5 -17 2 -10 6 6 21 40 33 78 13 37 26 67 29 67 3 0
16 -8 29 -18 l23 -18 -30 -68 c-36 -79 -35 -74 -17 -78 10 -2 -2 -23 -37 -68
l-52 -64 -6 74 -5 75 -2 -82 c-1 -46 2 -83 7 -83 15 0 132 150 125 161 -3 5
-10 7 -15 4 -12 -8 -12 -4 7 40 11 27 18 34 24 25 6 -10 14 -9 37 5 28 16 31
16 56 1 19 -13 27 -14 33 -5 4 8 13 0 25 -22 23 -42 23 -47 3 -51 -11 -2 1
-24 47 -80 33 -43 65 -78 70 -78 10 0 12 72 3 157 -5 49 -10 60 -23 56 -12 -3
-20 10 -33 47 -9 27 -15 50 -13 50 1 0 20 -7 40 -16 29 -12 35 -18 25 -24 -20
-12 -8 -21 52 -37 29 -8 70 -19 91 -25 21 -6 40 -8 44 -5 6 6 -44 75 -106 147
-23 26 -31 30 -31 18 0 -22 -9 -23 -38 -2 l-23 16 22 16 c16 11 24 12 27 4 7
-21 26 -13 50 21 12 17 38 52 57 77 19 25 35 50 35 56 0 8 -34 3 -100 -13 -55
-14 -100 -29 -100 -34 0 -5 5 -9 10 -9 21 0 9 -16 -20 -27 -35 -13 -34 -15
-14 36 9 24 21 38 28 35 16 -6 26 57 26 153 0 47 -3 64 -12 61 -7 -3 -39 -38
-70 -79 -40 -52 -53 -75 -43 -77 18 -4 18 -3 -1 -52 -16 -40 -29 -50 -36 -28
-3 9 -12 9 -36 -1 -29 -12 -35 -12 -51 3 -18 17 -20 16 -29 -1 -13 -21 -17
-18 -37 30 -14 33 -14 37 0 37 8 0 15 3 15 6 0 7 -118 151 -130 159 -6 4 -9
-22 -8 -67z m424 10 c-2 -24 -5 -64 -5 -90 -1 -36 -4 -46 -15 -42 -10 4 -20
-13 -35 -57 -11 -35 -21 -66 -21 -70 0 -9 87 39 95 52 4 5 1 9 -6 9 -8 0 -9 3
-3 9 10 10 145 44 150 38 2 -2 -19 -34 -47 -72 -35 -46 -54 -63 -59 -55 -6 10
-16 8 -44 -9 l-36 -22 -55 38 c-30 21 -55 41 -55 44 0 4 13 35 29 70 22 49 26
65 16 69 -9 4 0 24 33 68 25 34 50 62 55 62 4 0 6 -19 3 -42z"/>
<path d="M1368 2956 c-20 -7 -52 -23 -72 -34 l-35 -21 6 30 c10 53 -50 27
-122 -53 -26 -29 -44 -44 -41 -33 4 11 10 33 13 49 5 26 4 27 -14 17 -30 -15
-116 -137 -142 -201 -25 -60 -37 -78 -28 -42 3 12 1 20 -4 16 -5 -3 -9 -26 -9
-52 0 -26 -7 -87 -15 -137 -8 -49 -15 -106 -15 -126 0 -20 -7 -42 -15 -49 -11
-9 -15 -9 -15 -1 0 7 -4 10 -8 7 -5 -3 -7 37 -5 88 2 67 10 115 28 167 35 102
40 120 22 89 -24 -40 -57 -150 -57 -187 0 -35 -8 -41 -28 -21 -9 9 -13 7 -18
-6 -9 -24 3 -149 21 -211 17 -58 67 -143 90 -151 11 -5 15 -22 15 -63 0 -44
-6 -65 -26 -95 -28 -40 -25 -65 7 -74 11 -3 10 0 -2 13 -16 16 -15 20 7 52 13
20 24 42 24 49 0 24 23 63 34 58 6 -3 3 1 -6 8 -21 18 -35 68 -18 68 6 0 8 -5
5 -10 -8 -12 48 -70 67 -70 10 0 10 2 -1 9 -8 5 -11 16 -8 25 3 8 2 18 -3 21
-4 3 -10 -1 -13 -7 -3 -10 -7 -10 -17 -1 -10 10 -11 15 -1 27 6 8 8 16 3 18
-5 1 -12 14 -16 28 -6 25 -6 25 5 3 7 -13 16 -23 21 -23 12 0 10 11 -7 30 -22
25 -45 127 -45 205 0 49 -3 65 -10 55 -8 -12 -10 -10 -10 8 0 51 24 171 47
237 23 63 105 198 138 225 16 13 -23 -123 -54 -192 -12 -26 -31 -87 -41 -135
l-20 -88 5 75 c3 41 7 89 10 105 2 17 -2 8 -9 -20 -8 -27 -15 -80 -15 -116 -1
-71 -7 -85 -28 -68 -21 18 -15 -3 13 -44 14 -21 29 -61 34 -90 10 -58 28 -116
42 -134 6 -7 8 -18 6 -25 -6 -17 -44 58 -59 116 -16 64 -22 52 -8 -15 13 -61
47 -129 65 -129 6 0 17 7 24 15 7 8 18 15 26 15 14 0 29 -35 20 -48 -3 -5 4
-16 15 -25 35 -31 16 -66 -25 -45 -23 12 -74 -10 -54 -24 21 -13 38 -9 32 7
-8 21 12 19 34 -3 11 -11 28 -21 40 -24 18 -5 22 0 33 46 8 38 8 62 0 91 -6
21 -9 41 -6 43 2 2 9 -15 15 -39 11 -40 8 -95 -6 -134 -6 -14 0 -16 44 -14 29
2 55 0 58 -4 4 -4 -1 -7 -12 -8 -16 0 -15 -2 5 -10 29 -12 39 -4 24 19 -8 12
-23 17 -56 15 l-45 -1 5 57 c4 40 -1 78 -17 135 -22 80 -30 215 -16 286 6 30
5 32 -5 15 -14 -22 -18 -181 -7 -260 l7 -50 -15 55 c-10 37 -14 87 -11 155 2
55 2 92 0 83 -3 -10 -9 -18 -14 -18 -5 0 -7 -26 -4 -57 15 -184 15 -193 0
-193 -9 0 -15 17 -19 53 -11 101 -14 111 -12 40 1 -40 0 -70 -3 -68 -2 3 -10
0 -17 -6 -10 -8 -16 1 -28 43 -8 29 -17 64 -19 78 -3 20 -5 19 -6 -8 0 -18 8
-60 19 -93 27 -78 19 -100 -11 -34 -24 54 -31 157 -16 245 5 31 4 40 -3 30
-33 -51 18 156 59 239 40 78 117 179 152 197 16 8 29 12 29 10 0 -19 -26 -65
-59 -104 -45 -53 -91 -141 -90 -168 0 -14 3 -12 8 6 38 124 171 248 311 291
20 6 21 7 5 8 -11 0 -37 -6 -57 -13z"/>
<path d="M2831 2946 c81 -33 119 -59 178 -121 51 -54 100 -141 102 -180 0 -12
3 -15 6 -7 10 24 -39 130 -83 182 -47 55 -79 108 -71 117 10 9 45 -17 87 -64
71 -81 145 -250 165 -378 6 -40 6 -40 -10 -15 -11 17 -14 19 -9 5 4 -11 9 -58
11 -105 4 -70 1 -95 -17 -142 -12 -32 -26 -58 -32 -58 -6 0 -7 8 -3 18 21 52
35 112 34 147 -1 39 -2 38 -9 -11 -4 -28 -13 -68 -20 -88 -11 -34 -13 -36 -26
-19 -7 10 -14 34 -15 53 -2 33 -2 34 -6 5 -7 -54 -13 -75 -24 -75 -10 0 -9 32
6 230 2 35 1 46 -4 30 -7 -24 -8 -24 -20 14 -10 28 -16 35 -22 25 -5 -8 -9
-18 -9 -24 0 -5 4 -5 8 2 4 6 6 -39 4 -100 -2 -79 -11 -140 -28 -206 -22 -80
-24 -101 -15 -137 14 -56 14 -57 -9 -51 -13 3 -20 0 -20 -9 0 -8 -6 -14 -14
-14 -8 0 -22 -3 -32 -7 -12 -4 -15 -3 -10 5 4 7 16 12 27 12 10 0 19 5 19 10
0 6 -12 5 -31 -3 -17 -7 -29 -17 -27 -22 5 -14 69 -10 78 5 4 7 14 10 22 7 12
-4 15 11 14 91 -1 65 3 104 12 117 l14 20 -7 -20 c-23 -71 -11 -205 19 -205 8
0 21 11 30 26 10 14 27 29 39 34 16 6 18 9 5 9 -9 1 -20 -3 -23 -9 -3 -5 -11
-10 -16 -10 -6 0 -7 4 -4 10 3 6 -1 7 -9 4 -29 -11 -17 24 17 51 17 14 24 23
14 19 -14 -5 -16 -3 -9 17 12 32 27 34 51 7 l21 -22 -25 -13 c-24 -13 -25 -13
-5 -33 11 -11 20 -27 20 -35 0 -13 4 -14 20 -5 16 9 20 8 20 -5 0 -19 8 -19
53 0 45 18 50 27 32 51 -14 19 -14 19 -16 -1 -1 -11 -1 -23 0 -27 1 -11 -37
-20 -50 -12 -8 5 -7 10 5 16 9 5 16 16 16 25 0 14 -2 14 -14 -3 -14 -19 -15
-19 -22 1 -4 11 -9 24 -12 29 -3 5 -1 6 5 3 6 -4 16 6 23 21 11 24 13 25 19 9
6 -17 8 -16 18 6 7 14 9 36 6 48 -4 19 -3 21 6 9 8 -11 9 -6 5 21 -6 32 -3 39
26 59 l33 23 -5 -24 c-3 -13 -15 -52 -26 -87 -11 -35 -16 -62 -10 -60 12 4 91
219 83 226 -3 3 -6 -1 -6 -9 -1 -8 -5 0 -10 16 -8 28 -8 28 -4 -7 2 -26 -1
-38 -12 -42 -9 -4 -19 -4 -22 0 -3 3 -6 52 -5 107 1 73 -1 86 -5 47 -6 -52 -7
-49 -20 65 -7 66 -12 129 -9 140 5 29 56 -114 73 -206 7 -40 14 -67 14 -58 1
9 8 20 17 23 15 6 16 -1 11 -63 -9 -105 -35 -187 -72 -227 -18 -19 -29 -36
-25 -39 5 -3 6 -15 2 -27 -4 -15 -2 -19 7 -13 7 4 11 18 8 32 -3 15 0 22 7 20
21 -7 17 -35 -11 -67 l-28 -34 30 20 c21 13 27 15 20 4 -13 -20 -7 -55 15 -93
10 -18 17 -45 15 -60 -3 -22 0 -27 12 -23 8 3 17 6 19 6 12 0 1 39 -15 54 -38
35 -50 187 -19 248 26 52 48 157 49 229 1 66 -3 78 -25 60 -11 -9 -15 -4 -20
34 -9 59 -38 141 -64 184 l-21 34 -7 -28 c-7 -27 -8 -26 -34 32 -40 88 -139
217 -155 201 -3 -3 2 -22 10 -44 12 -31 14 -33 10 -9 l-6 30 23 -25 c74 -78
126 -186 152 -312 17 -84 21 -179 6 -143 -6 14 -9 -2 -9 -52 -1 -104 -18 -169
-53 -209 -38 -43 -45 -38 -19 12 11 22 22 57 25 79 l6 40 -14 -43 c-15 -45
-45 -97 -52 -89 -2 2 6 28 20 58 13 30 27 78 31 108 4 29 18 69 31 89 27 39
32 61 9 42 -18 -15 -22 1 -29 115 -3 45 -10 92 -16 105 l-11 25 6 -25 c3 -14
7 -59 10 -100 l5 -75 -14 60 c-8 33 -24 87 -36 120 -12 33 -30 81 -40 107 -9
26 -19 46 -22 43 -3 -3 -17 13 -32 35 -30 45 -100 100 -128 100 -21 0 -22 -4
-7 -32 16 -29 4 -33 -30 -9 -32 23 -104 51 -130 51 -9 0 9 -11 40 -24z"/>
</g>
</svg>
